<mxfile host="app.diagrams.net" agent="Mozilla/5.0 (Windows NT 10.0; Win64; x64) AppleWebKit/537.36 (KHTML, like Gecko) Chrome/125.0.0.0 Safari/537.36 Edg/125.0.0.0" version="26.1.1">
  <diagram name="第 1 页" id="C0YouLCOz6j5nJcRB5mc">
    <mxGraphModel dx="2595" dy="797" grid="0" gridSize="10" guides="1" tooltips="1" connect="1" arrows="1" fold="1" page="1" pageScale="1" pageWidth="1169" pageHeight="827" math="1" shadow="0">
      <root>
        <mxCell id="0" />
        <mxCell id="1" parent="0" />
        <mxCell id="cR_iiY9tCm36Eg8_rBR5-239" value="" style="rounded=1;whiteSpace=wrap;html=1;arcSize=19;" vertex="1" parent="1">
          <mxGeometry x="-843" y="223.5" width="600" height="349.5" as="geometry" />
        </mxCell>
        <mxCell id="cR_iiY9tCm36Eg8_rBR5-238" value="" style="rounded=1;whiteSpace=wrap;html=1;arcSize=19;" vertex="1" parent="1">
          <mxGeometry x="-853" y="213.5" width="600" height="349.5" as="geometry" />
        </mxCell>
        <mxCell id="cR_iiY9tCm36Eg8_rBR5-101" value="" style="rounded=1;whiteSpace=wrap;html=1;arcSize=19;" vertex="1" parent="1">
          <mxGeometry x="-863" y="203.5" width="600" height="349.5" as="geometry" />
        </mxCell>
        <mxCell id="cR_iiY9tCm36Eg8_rBR5-102" value="" style="group" vertex="1" connectable="0" parent="1">
          <mxGeometry x="-245" y="254" width="220" height="160" as="geometry" />
        </mxCell>
        <mxCell id="cR_iiY9tCm36Eg8_rBR5-103" style="rounded=0;orthogonalLoop=1;jettySize=auto;html=1;exitX=1;exitY=0;exitDx=0;exitDy=0;entryX=0;entryY=1;entryDx=0;entryDy=0;endArrow=none;startFill=0;" edge="1" parent="cR_iiY9tCm36Eg8_rBR5-102" source="cR_iiY9tCm36Eg8_rBR5-106" target="cR_iiY9tCm36Eg8_rBR5-120">
          <mxGeometry relative="1" as="geometry" />
        </mxCell>
        <mxCell id="cR_iiY9tCm36Eg8_rBR5-104" style="edgeStyle=orthogonalEdgeStyle;rounded=0;orthogonalLoop=1;jettySize=auto;html=1;exitX=0.5;exitY=1;exitDx=0;exitDy=0;entryX=0.5;entryY=0;entryDx=0;entryDy=0;endArrow=none;startFill=0;" edge="1" parent="cR_iiY9tCm36Eg8_rBR5-102" source="cR_iiY9tCm36Eg8_rBR5-106" target="cR_iiY9tCm36Eg8_rBR5-125">
          <mxGeometry relative="1" as="geometry" />
        </mxCell>
        <mxCell id="cR_iiY9tCm36Eg8_rBR5-105" style="edgeStyle=none;shape=connector;rounded=0;orthogonalLoop=1;jettySize=auto;html=1;exitX=1;exitY=0.5;exitDx=0;exitDy=0;entryX=0;entryY=0.5;entryDx=0;entryDy=0;strokeColor=default;align=center;verticalAlign=middle;fontFamily=Helvetica;fontSize=11;fontColor=default;labelBackgroundColor=default;startFill=0;endArrow=none;" edge="1" parent="cR_iiY9tCm36Eg8_rBR5-102" source="cR_iiY9tCm36Eg8_rBR5-106" target="cR_iiY9tCm36Eg8_rBR5-114">
          <mxGeometry relative="1" as="geometry" />
        </mxCell>
        <mxCell id="cR_iiY9tCm36Eg8_rBR5-106" value="" style="ellipse;whiteSpace=wrap;html=1;aspect=fixed;movable=1;resizable=1;rotatable=1;deletable=1;editable=1;locked=0;connectable=1;fillColor=#dae8fc;strokeColor=#6c8ebf;" vertex="1" parent="cR_iiY9tCm36Eg8_rBR5-102">
          <mxGeometry x="43" y="108.99623122209044" width="20.180727550369227" height="20.180727550369227" as="geometry" />
        </mxCell>
        <mxCell id="cR_iiY9tCm36Eg8_rBR5-107" style="edgeStyle=none;shape=connector;rounded=0;orthogonalLoop=1;jettySize=auto;html=1;exitX=0.5;exitY=0;exitDx=0;exitDy=0;entryX=0.5;entryY=1;entryDx=0;entryDy=0;strokeColor=default;align=center;verticalAlign=middle;fontFamily=Helvetica;fontSize=11;fontColor=default;labelBackgroundColor=default;startFill=0;endArrow=none;" edge="1" parent="cR_iiY9tCm36Eg8_rBR5-102" source="cR_iiY9tCm36Eg8_rBR5-108" target="cR_iiY9tCm36Eg8_rBR5-118">
          <mxGeometry relative="1" as="geometry" />
        </mxCell>
        <mxCell id="cR_iiY9tCm36Eg8_rBR5-108" value="" style="ellipse;whiteSpace=wrap;html=1;aspect=fixed;movable=1;resizable=1;rotatable=1;deletable=1;editable=1;locked=0;connectable=1;fillColor=#e1d5e7;strokeColor=#9673a6;" vertex="1" parent="cR_iiY9tCm36Eg8_rBR5-102">
          <mxGeometry x="222.00066735797964" y="147.99908768446807" width="20.180727550369227" height="20.180727550369227" as="geometry" />
        </mxCell>
        <mxCell id="cR_iiY9tCm36Eg8_rBR5-109" style="edgeStyle=none;shape=connector;rounded=0;orthogonalLoop=1;jettySize=auto;html=1;exitX=1;exitY=0.5;exitDx=0;exitDy=0;entryX=0;entryY=1;entryDx=0;entryDy=0;strokeColor=default;align=center;verticalAlign=middle;fontFamily=Helvetica;fontSize=11;fontColor=default;labelBackgroundColor=default;startFill=0;endArrow=none;" edge="1" parent="cR_iiY9tCm36Eg8_rBR5-102" source="cR_iiY9tCm36Eg8_rBR5-116" target="cR_iiY9tCm36Eg8_rBR5-108">
          <mxGeometry relative="1" as="geometry" />
        </mxCell>
        <mxCell id="cR_iiY9tCm36Eg8_rBR5-110" style="edgeStyle=none;shape=connector;rounded=0;orthogonalLoop=1;jettySize=auto;html=1;exitX=1;exitY=0.5;exitDx=0;exitDy=0;entryX=0;entryY=0;entryDx=0;entryDy=0;strokeColor=default;align=center;verticalAlign=middle;fontFamily=Helvetica;fontSize=11;fontColor=default;labelBackgroundColor=default;startFill=0;endArrow=none;" edge="1" parent="cR_iiY9tCm36Eg8_rBR5-102" source="cR_iiY9tCm36Eg8_rBR5-121" target="cR_iiY9tCm36Eg8_rBR5-108">
          <mxGeometry relative="1" as="geometry" />
        </mxCell>
        <mxCell id="cR_iiY9tCm36Eg8_rBR5-111" style="edgeStyle=none;shape=connector;rounded=0;orthogonalLoop=1;jettySize=auto;html=1;exitX=1;exitY=1;exitDx=0;exitDy=0;entryX=0;entryY=0;entryDx=0;entryDy=0;strokeColor=default;align=center;verticalAlign=middle;fontFamily=Helvetica;fontSize=11;fontColor=default;labelBackgroundColor=default;startFill=0;endArrow=none;" edge="1" parent="cR_iiY9tCm36Eg8_rBR5-102" source="cR_iiY9tCm36Eg8_rBR5-112" target="cR_iiY9tCm36Eg8_rBR5-118">
          <mxGeometry relative="1" as="geometry" />
        </mxCell>
        <mxCell id="cR_iiY9tCm36Eg8_rBR5-112" value="" style="ellipse;whiteSpace=wrap;html=1;aspect=fixed;movable=1;resizable=1;rotatable=1;deletable=1;editable=1;locked=0;connectable=1;fillColor=#dae8fc;strokeColor=#6c8ebf;" vertex="1" parent="cR_iiY9tCm36Eg8_rBR5-102">
          <mxGeometry x="164.02781518331858" y="46" width="18.559061943643123" height="18.559061943643123" as="geometry" />
        </mxCell>
        <mxCell id="cR_iiY9tCm36Eg8_rBR5-113" style="edgeStyle=none;shape=connector;rounded=0;orthogonalLoop=1;jettySize=auto;html=1;exitX=0;exitY=1;exitDx=0;exitDy=0;entryX=1;entryY=0;entryDx=0;entryDy=0;strokeColor=default;align=center;verticalAlign=middle;fontFamily=Helvetica;fontSize=11;fontColor=default;labelBackgroundColor=default;startFill=0;endArrow=none;" edge="1" parent="cR_iiY9tCm36Eg8_rBR5-102" source="cR_iiY9tCm36Eg8_rBR5-114" target="cR_iiY9tCm36Eg8_rBR5-123">
          <mxGeometry relative="1" as="geometry" />
        </mxCell>
        <mxCell id="cR_iiY9tCm36Eg8_rBR5-114" value="" style="ellipse;whiteSpace=wrap;html=1;aspect=fixed;movable=1;resizable=1;rotatable=1;deletable=1;editable=1;locked=0;connectable=1;fillColor=#e1d5e7;strokeColor=#9673a6;" vertex="1" parent="cR_iiY9tCm36Eg8_rBR5-102">
          <mxGeometry x="116.43920824230503" y="102.93762562193152" width="18.559061943643123" height="18.559061943643123" as="geometry" />
        </mxCell>
        <mxCell id="cR_iiY9tCm36Eg8_rBR5-115" style="edgeStyle=none;shape=connector;rounded=0;orthogonalLoop=1;jettySize=auto;html=1;exitX=1;exitY=0;exitDx=0;exitDy=0;entryX=0.5;entryY=1;entryDx=0;entryDy=0;strokeColor=default;align=center;verticalAlign=middle;fontFamily=Helvetica;fontSize=11;fontColor=default;labelBackgroundColor=default;startFill=0;endArrow=none;" edge="1" parent="cR_iiY9tCm36Eg8_rBR5-102" source="cR_iiY9tCm36Eg8_rBR5-116" target="cR_iiY9tCm36Eg8_rBR5-121">
          <mxGeometry relative="1" as="geometry" />
        </mxCell>
        <mxCell id="cR_iiY9tCm36Eg8_rBR5-116" value="" style="ellipse;whiteSpace=wrap;html=1;aspect=fixed;movable=1;resizable=1;rotatable=1;deletable=1;editable=1;locked=0;connectable=1;fillColor=#d5e8d4;strokeColor=#82b366;" vertex="1" parent="cR_iiY9tCm36Eg8_rBR5-102">
          <mxGeometry x="140.23351171281175" y="182.9349896207453" width="18.559061943643123" height="18.559061943643123" as="geometry" />
        </mxCell>
        <mxCell id="cR_iiY9tCm36Eg8_rBR5-117" style="edgeStyle=none;shape=connector;rounded=0;orthogonalLoop=1;jettySize=auto;html=1;exitX=0;exitY=1;exitDx=0;exitDy=0;entryX=1;entryY=0;entryDx=0;entryDy=0;strokeColor=default;align=center;verticalAlign=middle;fontFamily=Helvetica;fontSize=11;fontColor=default;labelBackgroundColor=default;startFill=0;endArrow=none;" edge="1" parent="cR_iiY9tCm36Eg8_rBR5-102" source="cR_iiY9tCm36Eg8_rBR5-118" target="cR_iiY9tCm36Eg8_rBR5-114">
          <mxGeometry relative="1" as="geometry" />
        </mxCell>
        <mxCell id="cR_iiY9tCm36Eg8_rBR5-118" value="" style="ellipse;whiteSpace=wrap;html=1;aspect=fixed;movable=1;resizable=1;rotatable=1;deletable=1;editable=1;locked=0;connectable=1;fillColor=#ffe6cc;strokeColor=#d79b00;" vertex="1" parent="cR_iiY9tCm36Eg8_rBR5-102">
          <mxGeometry x="200.747419304471" y="79.87788724504918" width="18.559061943643123" height="18.559061943643123" as="geometry" />
        </mxCell>
        <mxCell id="cR_iiY9tCm36Eg8_rBR5-119" style="edgeStyle=orthogonalEdgeStyle;rounded=0;orthogonalLoop=1;jettySize=auto;html=1;exitX=1;exitY=0.5;exitDx=0;exitDy=0;entryX=0;entryY=0.5;entryDx=0;entryDy=0;startArrow=none;startFill=0;jumpStyle=none;curved=1;endArrow=none;" edge="1" parent="cR_iiY9tCm36Eg8_rBR5-102" source="cR_iiY9tCm36Eg8_rBR5-120" target="cR_iiY9tCm36Eg8_rBR5-112">
          <mxGeometry relative="1" as="geometry" />
        </mxCell>
        <mxCell id="cR_iiY9tCm36Eg8_rBR5-120" value="" style="ellipse;whiteSpace=wrap;html=1;aspect=fixed;movable=1;resizable=1;rotatable=1;deletable=1;editable=1;locked=0;connectable=1;fillColor=#ffe6cc;strokeColor=#d79b00;" vertex="1" parent="cR_iiY9tCm36Eg8_rBR5-102">
          <mxGeometry x="91.27403955127514" y="46" width="18.554819872341717" height="18.554819872341717" as="geometry" />
        </mxCell>
        <mxCell id="cR_iiY9tCm36Eg8_rBR5-121" value="" style="ellipse;whiteSpace=wrap;html=1;aspect=fixed;movable=1;resizable=1;rotatable=1;deletable=1;editable=1;locked=0;connectable=1;fillColor=#dae8fc;strokeColor=#6c8ebf;" vertex="1" parent="cR_iiY9tCm36Eg8_rBR5-102">
          <mxGeometry x="164.02781518331858" y="122.5811064614978" width="18.559061943643123" height="18.559061943643123" as="geometry" />
        </mxCell>
        <mxCell id="cR_iiY9tCm36Eg8_rBR5-122" style="edgeStyle=none;shape=connector;rounded=0;orthogonalLoop=1;jettySize=auto;html=1;exitX=1;exitY=0.5;exitDx=0;exitDy=0;entryX=0;entryY=1;entryDx=0;entryDy=0;strokeColor=default;align=center;verticalAlign=middle;fontFamily=Helvetica;fontSize=11;fontColor=default;labelBackgroundColor=default;startFill=0;endArrow=none;" edge="1" parent="cR_iiY9tCm36Eg8_rBR5-102" source="cR_iiY9tCm36Eg8_rBR5-123" target="cR_iiY9tCm36Eg8_rBR5-121">
          <mxGeometry relative="1" as="geometry" />
        </mxCell>
        <mxCell id="cR_iiY9tCm36Eg8_rBR5-123" value="" style="ellipse;whiteSpace=wrap;html=1;aspect=fixed;movable=1;resizable=1;rotatable=1;deletable=1;editable=1;locked=0;connectable=1;fillColor=#dae8fc;strokeColor=#6c8ebf;" vertex="1" parent="cR_iiY9tCm36Eg8_rBR5-102">
          <mxGeometry x="91.27403955127514" y="182.9349896207453" width="18.559061943643123" height="18.559061943643123" as="geometry" />
        </mxCell>
        <mxCell id="cR_iiY9tCm36Eg8_rBR5-124" style="rounded=0;orthogonalLoop=1;jettySize=auto;html=1;exitX=1;exitY=1;exitDx=0;exitDy=0;entryX=0;entryY=0.5;entryDx=0;entryDy=0;endArrow=none;startFill=0;" edge="1" parent="cR_iiY9tCm36Eg8_rBR5-102" source="cR_iiY9tCm36Eg8_rBR5-125" target="cR_iiY9tCm36Eg8_rBR5-123">
          <mxGeometry relative="1" as="geometry" />
        </mxCell>
        <mxCell id="cR_iiY9tCm36Eg8_rBR5-125" value="" style="ellipse;whiteSpace=wrap;html=1;aspect=fixed;movable=1;resizable=1;rotatable=1;deletable=1;editable=1;locked=0;connectable=1;fillColor=#d5e8d4;strokeColor=#82b366;" vertex="1" parent="cR_iiY9tCm36Eg8_rBR5-102">
          <mxGeometry x="43.00000000000007" y="159.87525124386303" width="18.559061943643123" height="18.559061943643123" as="geometry" />
        </mxCell>
        <mxCell id="cR_iiY9tCm36Eg8_rBR5-126" value="" style="group" vertex="1" connectable="0" parent="1">
          <mxGeometry x="-1098" y="284" width="228" height="178" as="geometry" />
        </mxCell>
        <mxCell id="cR_iiY9tCm36Eg8_rBR5-127" style="rounded=0;orthogonalLoop=1;jettySize=auto;html=1;exitX=1;exitY=0;exitDx=0;exitDy=0;entryX=0;entryY=1;entryDx=0;entryDy=0;endArrow=none;startFill=0;" edge="1" parent="cR_iiY9tCm36Eg8_rBR5-126" source="cR_iiY9tCm36Eg8_rBR5-130" target="cR_iiY9tCm36Eg8_rBR5-144">
          <mxGeometry relative="1" as="geometry" />
        </mxCell>
        <mxCell id="cR_iiY9tCm36Eg8_rBR5-128" style="edgeStyle=orthogonalEdgeStyle;rounded=0;orthogonalLoop=1;jettySize=auto;html=1;exitX=0.5;exitY=1;exitDx=0;exitDy=0;entryX=0.5;entryY=0;entryDx=0;entryDy=0;endArrow=none;startFill=0;" edge="1" parent="cR_iiY9tCm36Eg8_rBR5-126" source="cR_iiY9tCm36Eg8_rBR5-130" target="cR_iiY9tCm36Eg8_rBR5-149">
          <mxGeometry relative="1" as="geometry" />
        </mxCell>
        <mxCell id="cR_iiY9tCm36Eg8_rBR5-129" style="edgeStyle=none;shape=connector;rounded=0;orthogonalLoop=1;jettySize=auto;html=1;exitX=1;exitY=0.5;exitDx=0;exitDy=0;entryX=0;entryY=0.5;entryDx=0;entryDy=0;strokeColor=default;align=center;verticalAlign=middle;fontFamily=Helvetica;fontSize=11;fontColor=default;labelBackgroundColor=default;startFill=0;endArrow=none;" edge="1" parent="cR_iiY9tCm36Eg8_rBR5-126" source="cR_iiY9tCm36Eg8_rBR5-130" target="cR_iiY9tCm36Eg8_rBR5-138">
          <mxGeometry relative="1" as="geometry" />
        </mxCell>
        <mxCell id="cR_iiY9tCm36Eg8_rBR5-130" value="" style="ellipse;whiteSpace=wrap;html=1;aspect=fixed;movable=1;resizable=1;rotatable=1;deletable=1;editable=1;locked=0;connectable=1;fillColor=#dae8fc;strokeColor=#6c8ebf;" vertex="1" parent="cR_iiY9tCm36Eg8_rBR5-126">
          <mxGeometry y="62.99623122209045" width="20.180727550369227" height="20.180727550369227" as="geometry" />
        </mxCell>
        <mxCell id="cR_iiY9tCm36Eg8_rBR5-131" style="edgeStyle=none;shape=connector;rounded=0;orthogonalLoop=1;jettySize=auto;html=1;exitX=0.5;exitY=0;exitDx=0;exitDy=0;entryX=0.5;entryY=1;entryDx=0;entryDy=0;strokeColor=default;align=center;verticalAlign=middle;fontFamily=Helvetica;fontSize=11;fontColor=default;labelBackgroundColor=default;startFill=0;endArrow=none;" edge="1" parent="cR_iiY9tCm36Eg8_rBR5-126" source="cR_iiY9tCm36Eg8_rBR5-132" target="cR_iiY9tCm36Eg8_rBR5-142">
          <mxGeometry relative="1" as="geometry" />
        </mxCell>
        <mxCell id="cR_iiY9tCm36Eg8_rBR5-132" value="" style="ellipse;whiteSpace=wrap;html=1;aspect=fixed;movable=1;resizable=1;rotatable=1;deletable=1;editable=1;locked=0;connectable=1;fillColor=#e1d5e7;strokeColor=#9673a6;" vertex="1" parent="cR_iiY9tCm36Eg8_rBR5-126">
          <mxGeometry x="179.00066735797964" y="101.99908768446805" width="20.180727550369227" height="20.180727550369227" as="geometry" />
        </mxCell>
        <mxCell id="cR_iiY9tCm36Eg8_rBR5-133" style="edgeStyle=none;shape=connector;rounded=0;orthogonalLoop=1;jettySize=auto;html=1;exitX=1;exitY=0.5;exitDx=0;exitDy=0;entryX=0;entryY=1;entryDx=0;entryDy=0;strokeColor=default;align=center;verticalAlign=middle;fontFamily=Helvetica;fontSize=11;fontColor=default;labelBackgroundColor=default;startFill=0;endArrow=none;" edge="1" parent="cR_iiY9tCm36Eg8_rBR5-126" source="cR_iiY9tCm36Eg8_rBR5-140" target="cR_iiY9tCm36Eg8_rBR5-132">
          <mxGeometry relative="1" as="geometry" />
        </mxCell>
        <mxCell id="cR_iiY9tCm36Eg8_rBR5-134" style="edgeStyle=none;shape=connector;rounded=0;orthogonalLoop=1;jettySize=auto;html=1;exitX=1;exitY=0.5;exitDx=0;exitDy=0;entryX=0;entryY=0;entryDx=0;entryDy=0;strokeColor=default;align=center;verticalAlign=middle;fontFamily=Helvetica;fontSize=11;fontColor=default;labelBackgroundColor=default;startFill=0;endArrow=none;" edge="1" parent="cR_iiY9tCm36Eg8_rBR5-126" source="cR_iiY9tCm36Eg8_rBR5-145" target="cR_iiY9tCm36Eg8_rBR5-132">
          <mxGeometry relative="1" as="geometry" />
        </mxCell>
        <mxCell id="cR_iiY9tCm36Eg8_rBR5-135" style="edgeStyle=none;shape=connector;rounded=0;orthogonalLoop=1;jettySize=auto;html=1;exitX=1;exitY=1;exitDx=0;exitDy=0;entryX=0;entryY=0;entryDx=0;entryDy=0;strokeColor=default;align=center;verticalAlign=middle;fontFamily=Helvetica;fontSize=11;fontColor=default;labelBackgroundColor=default;startFill=0;endArrow=none;" edge="1" parent="cR_iiY9tCm36Eg8_rBR5-126" source="cR_iiY9tCm36Eg8_rBR5-136" target="cR_iiY9tCm36Eg8_rBR5-142">
          <mxGeometry relative="1" as="geometry" />
        </mxCell>
        <mxCell id="cR_iiY9tCm36Eg8_rBR5-136" value="" style="ellipse;whiteSpace=wrap;html=1;aspect=fixed;movable=1;resizable=1;rotatable=1;deletable=1;editable=1;locked=0;connectable=1;fillColor=#dae8fc;strokeColor=#6c8ebf;" vertex="1" parent="cR_iiY9tCm36Eg8_rBR5-126">
          <mxGeometry x="121.02781518331858" width="18.559061943643123" height="18.559061943643123" as="geometry" />
        </mxCell>
        <mxCell id="cR_iiY9tCm36Eg8_rBR5-137" style="edgeStyle=none;shape=connector;rounded=0;orthogonalLoop=1;jettySize=auto;html=1;exitX=0;exitY=1;exitDx=0;exitDy=0;entryX=1;entryY=0;entryDx=0;entryDy=0;strokeColor=default;align=center;verticalAlign=middle;fontFamily=Helvetica;fontSize=11;fontColor=default;labelBackgroundColor=default;startFill=0;endArrow=none;" edge="1" parent="cR_iiY9tCm36Eg8_rBR5-126" source="cR_iiY9tCm36Eg8_rBR5-138" target="cR_iiY9tCm36Eg8_rBR5-147">
          <mxGeometry relative="1" as="geometry" />
        </mxCell>
        <mxCell id="cR_iiY9tCm36Eg8_rBR5-138" value="" style="ellipse;whiteSpace=wrap;html=1;aspect=fixed;movable=1;resizable=1;rotatable=1;deletable=1;editable=1;locked=0;connectable=1;fillColor=#e1d5e7;strokeColor=#9673a6;" vertex="1" parent="cR_iiY9tCm36Eg8_rBR5-126">
          <mxGeometry x="73.43920824230503" y="56.93762562193151" width="18.559061943643123" height="18.559061943643123" as="geometry" />
        </mxCell>
        <mxCell id="cR_iiY9tCm36Eg8_rBR5-139" style="edgeStyle=none;shape=connector;rounded=0;orthogonalLoop=1;jettySize=auto;html=1;exitX=1;exitY=0;exitDx=0;exitDy=0;entryX=0.5;entryY=1;entryDx=0;entryDy=0;strokeColor=default;align=center;verticalAlign=middle;fontFamily=Helvetica;fontSize=11;fontColor=default;labelBackgroundColor=default;startFill=0;endArrow=none;" edge="1" parent="cR_iiY9tCm36Eg8_rBR5-126" source="cR_iiY9tCm36Eg8_rBR5-140" target="cR_iiY9tCm36Eg8_rBR5-145">
          <mxGeometry relative="1" as="geometry" />
        </mxCell>
        <mxCell id="cR_iiY9tCm36Eg8_rBR5-140" value="" style="ellipse;whiteSpace=wrap;html=1;aspect=fixed;movable=1;resizable=1;rotatable=1;deletable=1;editable=1;locked=0;connectable=1;fillColor=#d5e8d4;strokeColor=#82b366;" vertex="1" parent="cR_iiY9tCm36Eg8_rBR5-126">
          <mxGeometry x="97.23351171281175" y="136.9349896207453" width="18.559061943643123" height="18.559061943643123" as="geometry" />
        </mxCell>
        <mxCell id="cR_iiY9tCm36Eg8_rBR5-141" style="edgeStyle=none;shape=connector;rounded=0;orthogonalLoop=1;jettySize=auto;html=1;exitX=0;exitY=1;exitDx=0;exitDy=0;entryX=1;entryY=0;entryDx=0;entryDy=0;strokeColor=default;align=center;verticalAlign=middle;fontFamily=Helvetica;fontSize=11;fontColor=default;labelBackgroundColor=default;startFill=0;endArrow=none;" edge="1" parent="cR_iiY9tCm36Eg8_rBR5-126" source="cR_iiY9tCm36Eg8_rBR5-142" target="cR_iiY9tCm36Eg8_rBR5-138">
          <mxGeometry relative="1" as="geometry" />
        </mxCell>
        <mxCell id="cR_iiY9tCm36Eg8_rBR5-142" value="" style="ellipse;whiteSpace=wrap;html=1;aspect=fixed;movable=1;resizable=1;rotatable=1;deletable=1;editable=1;locked=0;connectable=1;fillColor=#ffe6cc;strokeColor=#d79b00;" vertex="1" parent="cR_iiY9tCm36Eg8_rBR5-126">
          <mxGeometry x="157.747419304471" y="33.87788724504917" width="18.559061943643123" height="18.559061943643123" as="geometry" />
        </mxCell>
        <mxCell id="cR_iiY9tCm36Eg8_rBR5-143" style="edgeStyle=orthogonalEdgeStyle;rounded=0;orthogonalLoop=1;jettySize=auto;html=1;exitX=1;exitY=0.5;exitDx=0;exitDy=0;entryX=0;entryY=0.5;entryDx=0;entryDy=0;startArrow=none;startFill=0;jumpStyle=none;curved=1;endArrow=none;" edge="1" parent="cR_iiY9tCm36Eg8_rBR5-126" source="cR_iiY9tCm36Eg8_rBR5-144" target="cR_iiY9tCm36Eg8_rBR5-136">
          <mxGeometry relative="1" as="geometry" />
        </mxCell>
        <mxCell id="cR_iiY9tCm36Eg8_rBR5-144" value="" style="ellipse;whiteSpace=wrap;html=1;aspect=fixed;movable=1;resizable=1;rotatable=1;deletable=1;editable=1;locked=0;connectable=1;fillColor=#ffe6cc;strokeColor=#d79b00;" vertex="1" parent="cR_iiY9tCm36Eg8_rBR5-126">
          <mxGeometry x="48.274039551275145" width="18.554819872341717" height="18.554819872341717" as="geometry" />
        </mxCell>
        <mxCell id="cR_iiY9tCm36Eg8_rBR5-145" value="" style="ellipse;whiteSpace=wrap;html=1;aspect=fixed;movable=1;resizable=1;rotatable=1;deletable=1;editable=1;locked=0;connectable=1;fillColor=#dae8fc;strokeColor=#6c8ebf;" vertex="1" parent="cR_iiY9tCm36Eg8_rBR5-126">
          <mxGeometry x="121.02781518331858" y="76.5811064614978" width="18.559061943643123" height="18.559061943643123" as="geometry" />
        </mxCell>
        <mxCell id="cR_iiY9tCm36Eg8_rBR5-146" style="edgeStyle=none;shape=connector;rounded=0;orthogonalLoop=1;jettySize=auto;html=1;exitX=1;exitY=0.5;exitDx=0;exitDy=0;entryX=0;entryY=1;entryDx=0;entryDy=0;strokeColor=default;align=center;verticalAlign=middle;fontFamily=Helvetica;fontSize=11;fontColor=default;labelBackgroundColor=default;startFill=0;endArrow=none;" edge="1" parent="cR_iiY9tCm36Eg8_rBR5-126" source="cR_iiY9tCm36Eg8_rBR5-147" target="cR_iiY9tCm36Eg8_rBR5-145">
          <mxGeometry relative="1" as="geometry" />
        </mxCell>
        <mxCell id="cR_iiY9tCm36Eg8_rBR5-147" value="" style="ellipse;whiteSpace=wrap;html=1;aspect=fixed;movable=1;resizable=1;rotatable=1;deletable=1;editable=1;locked=0;connectable=1;fillColor=#dae8fc;strokeColor=#6c8ebf;" vertex="1" parent="cR_iiY9tCm36Eg8_rBR5-126">
          <mxGeometry x="48.274039551275145" y="136.9349896207453" width="18.559061943643123" height="18.559061943643123" as="geometry" />
        </mxCell>
        <mxCell id="cR_iiY9tCm36Eg8_rBR5-148" style="rounded=0;orthogonalLoop=1;jettySize=auto;html=1;exitX=1;exitY=1;exitDx=0;exitDy=0;entryX=0;entryY=0.5;entryDx=0;entryDy=0;endArrow=none;startFill=0;" edge="1" parent="cR_iiY9tCm36Eg8_rBR5-126" source="cR_iiY9tCm36Eg8_rBR5-149" target="cR_iiY9tCm36Eg8_rBR5-147">
          <mxGeometry relative="1" as="geometry" />
        </mxCell>
        <mxCell id="cR_iiY9tCm36Eg8_rBR5-149" value="" style="ellipse;whiteSpace=wrap;html=1;aspect=fixed;movable=1;resizable=1;rotatable=1;deletable=1;editable=1;locked=0;connectable=1;fillColor=#d5e8d4;strokeColor=#82b366;" vertex="1" parent="cR_iiY9tCm36Eg8_rBR5-126">
          <mxGeometry x="6.957559458205735e-14" y="113.87525124386302" width="18.559061943643123" height="18.559061943643123" as="geometry" />
        </mxCell>
        <mxCell id="cR_iiY9tCm36Eg8_rBR5-229" value="$$\mathbf{x}_3$$" style="text;whiteSpace=wrap;fontFamily=Helvetica;fontSize=11;fontColor=default;resizable=1;rotation=0;" vertex="1" parent="cR_iiY9tCm36Eg8_rBR5-126">
          <mxGeometry x="45" y="143" width="49" height="30" as="geometry" />
        </mxCell>
        <mxCell id="cR_iiY9tCm36Eg8_rBR5-230" value="$$\mathbf{x}_4$$" style="text;whiteSpace=wrap;fontFamily=Helvetica;fontSize=11;fontColor=default;resizable=1;rotation=0;" vertex="1" parent="cR_iiY9tCm36Eg8_rBR5-126">
          <mxGeometry x="-15.220000000000027" y="122.18" width="49" height="30" as="geometry" />
        </mxCell>
        <mxCell id="cR_iiY9tCm36Eg8_rBR5-225" value="$$\mathbf{x}_m$$" style="text;whiteSpace=wrap;fontFamily=Helvetica;fontSize=11;fontColor=default;resizable=1;rotation=0;" vertex="1" parent="cR_iiY9tCm36Eg8_rBR5-126">
          <mxGeometry x="66.82999999999993" y="18.560000000000002" width="49" height="30" as="geometry" />
        </mxCell>
        <mxCell id="cR_iiY9tCm36Eg8_rBR5-224" value="$$\mathbf{x}_8$$" style="text;whiteSpace=wrap;fontFamily=Helvetica;fontSize=11;fontColor=default;resizable=1;rotation=0;" vertex="1" parent="cR_iiY9tCm36Eg8_rBR5-126">
          <mxGeometry x="132" y="46.579999999999984" width="49" height="30" as="geometry" />
        </mxCell>
        <mxCell id="cR_iiY9tCm36Eg8_rBR5-223" value="$$\mathbf{x}_9$$" style="text;whiteSpace=wrap;fontFamily=Helvetica;fontSize=11;fontColor=default;resizable=1;rotation=0;" vertex="1" parent="cR_iiY9tCm36Eg8_rBR5-126">
          <mxGeometry x="162" width="49" height="30" as="geometry" />
        </mxCell>
        <mxCell id="cR_iiY9tCm36Eg8_rBR5-231" value="$$\mathbf{x}_2$$" style="text;whiteSpace=wrap;fontFamily=Helvetica;fontSize=11;fontColor=default;resizable=1;rotation=0;" vertex="1" parent="cR_iiY9tCm36Eg8_rBR5-126">
          <mxGeometry x="179" y="111" width="49" height="30" as="geometry" />
        </mxCell>
        <mxCell id="cR_iiY9tCm36Eg8_rBR5-153" value="" style="group" vertex="1" connectable="0" parent="1">
          <mxGeometry x="-416" y="265" width="125.97784706761615" height="94.22297832258647" as="geometry" />
        </mxCell>
        <mxCell id="cR_iiY9tCm36Eg8_rBR5-78" style="rounded=0;orthogonalLoop=1;jettySize=auto;html=1;exitX=1;exitY=0;exitDx=0;exitDy=0;entryX=0;entryY=1;entryDx=0;entryDy=0;endArrow=none;startFill=0;movable=1;resizable=1;rotatable=1;deletable=1;editable=1;locked=0;connectable=1;" edge="1" parent="cR_iiY9tCm36Eg8_rBR5-153" source="cR_iiY9tCm36Eg8_rBR5-81" target="cR_iiY9tCm36Eg8_rBR5-95">
          <mxGeometry relative="1" as="geometry" />
        </mxCell>
        <mxCell id="cR_iiY9tCm36Eg8_rBR5-79" style="edgeStyle=orthogonalEdgeStyle;rounded=0;orthogonalLoop=1;jettySize=auto;html=1;exitX=0.5;exitY=1;exitDx=0;exitDy=0;entryX=0.5;entryY=0;entryDx=0;entryDy=0;endArrow=none;startFill=0;movable=1;resizable=1;rotatable=1;deletable=1;editable=1;locked=0;connectable=1;" edge="1" parent="cR_iiY9tCm36Eg8_rBR5-153" source="cR_iiY9tCm36Eg8_rBR5-81" target="cR_iiY9tCm36Eg8_rBR5-100">
          <mxGeometry relative="1" as="geometry" />
        </mxCell>
        <mxCell id="cR_iiY9tCm36Eg8_rBR5-80" style="edgeStyle=none;shape=connector;rounded=0;orthogonalLoop=1;jettySize=auto;html=1;exitX=1;exitY=0.5;exitDx=0;exitDy=0;entryX=0;entryY=0.5;entryDx=0;entryDy=0;strokeColor=default;align=center;verticalAlign=middle;fontFamily=Helvetica;fontSize=11;fontColor=default;labelBackgroundColor=default;startFill=0;endArrow=none;movable=1;resizable=1;rotatable=1;deletable=1;editable=1;locked=0;connectable=1;" edge="1" parent="cR_iiY9tCm36Eg8_rBR5-153" source="cR_iiY9tCm36Eg8_rBR5-81" target="cR_iiY9tCm36Eg8_rBR5-89">
          <mxGeometry relative="1" as="geometry" />
        </mxCell>
        <mxCell id="cR_iiY9tCm36Eg8_rBR5-81" value="" style="ellipse;whiteSpace=wrap;html=1;aspect=fixed;movable=1;resizable=1;rotatable=1;deletable=1;editable=1;locked=0;connectable=1;fillColor=#dae8fc;strokeColor=#6c8ebf;" vertex="1" parent="cR_iiY9tCm36Eg8_rBR5-153">
          <mxGeometry y="38.58519162353039" width="11.254692079092816" height="11.254692079092816" as="geometry" />
        </mxCell>
        <mxCell id="cR_iiY9tCm36Eg8_rBR5-82" style="edgeStyle=none;shape=connector;rounded=0;orthogonalLoop=1;jettySize=auto;html=1;exitX=0.5;exitY=0;exitDx=0;exitDy=0;entryX=0.5;entryY=1;entryDx=0;entryDy=0;strokeColor=default;align=center;verticalAlign=middle;fontFamily=Helvetica;fontSize=11;fontColor=default;labelBackgroundColor=default;startFill=0;endArrow=none;movable=1;resizable=1;rotatable=1;deletable=1;editable=1;locked=0;connectable=1;" edge="1" parent="cR_iiY9tCm36Eg8_rBR5-153" source="cR_iiY9tCm36Eg8_rBR5-83" target="cR_iiY9tCm36Eg8_rBR5-93">
          <mxGeometry relative="1" as="geometry" />
        </mxCell>
        <mxCell id="cR_iiY9tCm36Eg8_rBR5-83" value="" style="ellipse;whiteSpace=wrap;html=1;aspect=fixed;movable=1;resizable=1;rotatable=1;deletable=1;editable=1;locked=0;connectable=1;fillColor=#e1d5e7;strokeColor=#9673a6;" vertex="1" parent="cR_iiY9tCm36Eg8_rBR5-153">
          <mxGeometry x="114.72315498852333" y="62.474441206736685" width="11.254692079092816" height="11.254692079092816" as="geometry" />
        </mxCell>
        <mxCell id="cR_iiY9tCm36Eg8_rBR5-84" style="edgeStyle=none;shape=connector;rounded=0;orthogonalLoop=1;jettySize=auto;html=1;exitX=1;exitY=0.5;exitDx=0;exitDy=0;entryX=0;entryY=1;entryDx=0;entryDy=0;strokeColor=default;align=center;verticalAlign=middle;fontFamily=Helvetica;fontSize=11;fontColor=default;labelBackgroundColor=default;startFill=0;endArrow=none;movable=1;resizable=1;rotatable=1;deletable=1;editable=1;locked=0;connectable=1;" edge="1" parent="cR_iiY9tCm36Eg8_rBR5-153" source="cR_iiY9tCm36Eg8_rBR5-91" target="cR_iiY9tCm36Eg8_rBR5-83">
          <mxGeometry relative="1" as="geometry" />
        </mxCell>
        <mxCell id="cR_iiY9tCm36Eg8_rBR5-85" style="edgeStyle=none;shape=connector;rounded=0;orthogonalLoop=1;jettySize=auto;html=1;exitX=1;exitY=0.5;exitDx=0;exitDy=0;entryX=0;entryY=0;entryDx=0;entryDy=0;strokeColor=default;align=center;verticalAlign=middle;fontFamily=Helvetica;fontSize=11;fontColor=default;labelBackgroundColor=default;startFill=0;endArrow=none;movable=1;resizable=1;rotatable=1;deletable=1;editable=1;locked=0;connectable=1;" edge="1" parent="cR_iiY9tCm36Eg8_rBR5-153" source="cR_iiY9tCm36Eg8_rBR5-96" target="cR_iiY9tCm36Eg8_rBR5-83">
          <mxGeometry relative="1" as="geometry" />
        </mxCell>
        <mxCell id="cR_iiY9tCm36Eg8_rBR5-86" style="edgeStyle=none;shape=connector;rounded=0;orthogonalLoop=1;jettySize=auto;html=1;exitX=1;exitY=1;exitDx=0;exitDy=0;entryX=0;entryY=0;entryDx=0;entryDy=0;strokeColor=default;align=center;verticalAlign=middle;fontFamily=Helvetica;fontSize=11;fontColor=default;labelBackgroundColor=default;startFill=0;endArrow=none;movable=1;resizable=1;rotatable=1;deletable=1;editable=1;locked=0;connectable=1;" edge="1" parent="cR_iiY9tCm36Eg8_rBR5-153" source="cR_iiY9tCm36Eg8_rBR5-87" target="cR_iiY9tCm36Eg8_rBR5-93">
          <mxGeometry relative="1" as="geometry" />
        </mxCell>
        <mxCell id="cR_iiY9tCm36Eg8_rBR5-87" value="" style="ellipse;whiteSpace=wrap;html=1;aspect=fixed;movable=1;resizable=1;rotatable=1;deletable=1;editable=1;locked=0;connectable=1;fillColor=#dae8fc;strokeColor=#6c8ebf;" vertex="1" parent="cR_iiY9tCm36Eg8_rBR5-153">
          <mxGeometry x="77.56782700385418" width="10.350297179879998" height="10.350297179879998" as="geometry" />
        </mxCell>
        <mxCell id="cR_iiY9tCm36Eg8_rBR5-88" style="edgeStyle=none;shape=connector;rounded=0;orthogonalLoop=1;jettySize=auto;html=1;exitX=0;exitY=1;exitDx=0;exitDy=0;entryX=1;entryY=0;entryDx=0;entryDy=0;strokeColor=default;align=center;verticalAlign=middle;fontFamily=Helvetica;fontSize=11;fontColor=default;labelBackgroundColor=default;startFill=0;endArrow=none;movable=1;resizable=1;rotatable=1;deletable=1;editable=1;locked=0;connectable=1;" edge="1" parent="cR_iiY9tCm36Eg8_rBR5-153" source="cR_iiY9tCm36Eg8_rBR5-89" target="cR_iiY9tCm36Eg8_rBR5-98">
          <mxGeometry relative="1" as="geometry" />
        </mxCell>
        <mxCell id="cR_iiY9tCm36Eg8_rBR5-89" value="" style="ellipse;whiteSpace=wrap;html=1;aspect=fixed;movable=1;resizable=1;rotatable=1;deletable=1;editable=1;locked=0;connectable=1;fillColor=#e1d5e7;strokeColor=#9673a6;" vertex="1" parent="cR_iiY9tCm36Eg8_rBR5-153">
          <mxGeometry x="44.06785619165919" y="34.874295693433055" width="10.350297179879998" height="10.350297179879998" as="geometry" />
        </mxCell>
        <mxCell id="cR_iiY9tCm36Eg8_rBR5-90" style="edgeStyle=none;shape=connector;rounded=0;orthogonalLoop=1;jettySize=auto;html=1;exitX=1;exitY=0;exitDx=0;exitDy=0;entryX=0.5;entryY=1;entryDx=0;entryDy=0;strokeColor=default;align=center;verticalAlign=middle;fontFamily=Helvetica;fontSize=11;fontColor=default;labelBackgroundColor=default;startFill=0;endArrow=none;movable=1;resizable=1;rotatable=1;deletable=1;editable=1;locked=0;connectable=1;" edge="1" parent="cR_iiY9tCm36Eg8_rBR5-153" source="cR_iiY9tCm36Eg8_rBR5-91" target="cR_iiY9tCm36Eg8_rBR5-96">
          <mxGeometry relative="1" as="geometry" />
        </mxCell>
        <mxCell id="cR_iiY9tCm36Eg8_rBR5-91" value="" style="ellipse;whiteSpace=wrap;html=1;aspect=fixed;movable=1;resizable=1;rotatable=1;deletable=1;editable=1;locked=0;connectable=1;fillColor=#d5e8d4;strokeColor=#82b366;" vertex="1" parent="cR_iiY9tCm36Eg8_rBR5-153">
          <mxGeometry x="62.31784159775657" y="83.87268114270648" width="10.350297179879998" height="10.350297179879998" as="geometry" />
        </mxCell>
        <mxCell id="cR_iiY9tCm36Eg8_rBR5-92" style="edgeStyle=none;shape=connector;rounded=0;orthogonalLoop=1;jettySize=auto;html=1;exitX=0;exitY=1;exitDx=0;exitDy=0;entryX=1;entryY=0;entryDx=0;entryDy=0;strokeColor=default;align=center;verticalAlign=middle;fontFamily=Helvetica;fontSize=11;fontColor=default;labelBackgroundColor=default;startFill=0;endArrow=none;movable=1;resizable=1;rotatable=1;deletable=1;editable=1;locked=0;connectable=1;" edge="1" parent="cR_iiY9tCm36Eg8_rBR5-153" source="cR_iiY9tCm36Eg8_rBR5-93" target="cR_iiY9tCm36Eg8_rBR5-89">
          <mxGeometry relative="1" as="geometry" />
        </mxCell>
        <mxCell id="cR_iiY9tCm36Eg8_rBR5-93" value="" style="ellipse;whiteSpace=wrap;html=1;aspect=fixed;movable=1;resizable=1;rotatable=1;deletable=1;editable=1;locked=0;connectable=1;fillColor=#ffe6cc;strokeColor=#d79b00;" vertex="1" parent="cR_iiY9tCm36Eg8_rBR5-153">
          <mxGeometry x="101.10175509968371" y="20.750205937592625" width="10.350297179879998" height="10.350297179879998" as="geometry" />
        </mxCell>
        <mxCell id="cR_iiY9tCm36Eg8_rBR5-94" style="edgeStyle=orthogonalEdgeStyle;rounded=0;orthogonalLoop=1;jettySize=auto;html=1;exitX=1;exitY=0.5;exitDx=0;exitDy=0;entryX=0;entryY=0.5;entryDx=0;entryDy=0;startArrow=none;startFill=0;jumpStyle=none;curved=1;endArrow=none;movable=1;resizable=1;rotatable=1;deletable=1;editable=1;locked=0;connectable=1;" edge="1" parent="cR_iiY9tCm36Eg8_rBR5-153" source="cR_iiY9tCm36Eg8_rBR5-95" target="cR_iiY9tCm36Eg8_rBR5-87">
          <mxGeometry relative="1" as="geometry" />
        </mxCell>
        <mxCell id="cR_iiY9tCm36Eg8_rBR5-95" value="" style="ellipse;whiteSpace=wrap;html=1;aspect=fixed;movable=1;resizable=1;rotatable=1;deletable=1;editable=1;locked=0;connectable=1;fillColor=#ffe6cc;strokeColor=#d79b00;" vertex="1" parent="cR_iiY9tCm36Eg8_rBR5-153">
          <mxGeometry x="30.9392708033173" width="10.347931397667452" height="10.347931397667452" as="geometry" />
        </mxCell>
        <mxCell id="cR_iiY9tCm36Eg8_rBR5-96" value="" style="ellipse;whiteSpace=wrap;html=1;aspect=fixed;movable=1;resizable=1;rotatable=1;deletable=1;editable=1;locked=0;connectable=1;fillColor=#dae8fc;strokeColor=#6c8ebf;" vertex="1" parent="cR_iiY9tCm36Eg8_rBR5-153">
          <mxGeometry x="77.56782700385418" y="46.90592770766739" width="10.350297179879998" height="10.350297179879998" as="geometry" />
        </mxCell>
        <mxCell id="cR_iiY9tCm36Eg8_rBR5-97" style="edgeStyle=none;shape=connector;rounded=0;orthogonalLoop=1;jettySize=auto;html=1;exitX=1;exitY=0.5;exitDx=0;exitDy=0;entryX=0;entryY=1;entryDx=0;entryDy=0;strokeColor=default;align=center;verticalAlign=middle;fontFamily=Helvetica;fontSize=11;fontColor=default;labelBackgroundColor=default;startFill=0;endArrow=none;movable=1;resizable=1;rotatable=1;deletable=1;editable=1;locked=0;connectable=1;" edge="1" parent="cR_iiY9tCm36Eg8_rBR5-153" source="cR_iiY9tCm36Eg8_rBR5-98" target="cR_iiY9tCm36Eg8_rBR5-96">
          <mxGeometry relative="1" as="geometry" />
        </mxCell>
        <mxCell id="cR_iiY9tCm36Eg8_rBR5-98" value="" style="ellipse;whiteSpace=wrap;html=1;aspect=fixed;movable=1;resizable=1;rotatable=1;deletable=1;editable=1;locked=0;connectable=1;fillColor=#dae8fc;strokeColor=#6c8ebf;" vertex="1" parent="cR_iiY9tCm36Eg8_rBR5-153">
          <mxGeometry x="30.9392708033173" y="83.87268114270648" width="10.350297179879998" height="10.350297179879998" as="geometry" />
        </mxCell>
        <mxCell id="cR_iiY9tCm36Eg8_rBR5-99" style="rounded=0;orthogonalLoop=1;jettySize=auto;html=1;exitX=1;exitY=1;exitDx=0;exitDy=0;entryX=0;entryY=0.5;entryDx=0;entryDy=0;endArrow=none;startFill=0;movable=1;resizable=1;rotatable=1;deletable=1;editable=1;locked=0;connectable=1;" edge="1" parent="cR_iiY9tCm36Eg8_rBR5-153" source="cR_iiY9tCm36Eg8_rBR5-100" target="cR_iiY9tCm36Eg8_rBR5-98">
          <mxGeometry relative="1" as="geometry" />
        </mxCell>
        <mxCell id="cR_iiY9tCm36Eg8_rBR5-100" value="" style="ellipse;whiteSpace=wrap;html=1;aspect=fixed;movable=1;resizable=1;rotatable=1;deletable=1;editable=1;locked=0;connectable=1;fillColor=#d5e8d4;strokeColor=#82b366;" vertex="1" parent="cR_iiY9tCm36Eg8_rBR5-153">
          <mxGeometry y="69.74859138686611" width="10.350297179879998" height="10.350297179879998" as="geometry" />
        </mxCell>
        <mxCell id="cR_iiY9tCm36Eg8_rBR5-154" value="" style="group" vertex="1" connectable="0" parent="1">
          <mxGeometry x="-841" y="264" width="125.97784706761615" height="94.22297832258647" as="geometry" />
        </mxCell>
        <mxCell id="cR_iiY9tCm36Eg8_rBR5-155" style="rounded=0;orthogonalLoop=1;jettySize=auto;html=1;exitX=1;exitY=0;exitDx=0;exitDy=0;entryX=0;entryY=1;entryDx=0;entryDy=0;endArrow=none;startFill=0;movable=1;resizable=1;rotatable=1;deletable=1;editable=1;locked=0;connectable=1;" edge="1" parent="cR_iiY9tCm36Eg8_rBR5-154" source="cR_iiY9tCm36Eg8_rBR5-158" target="cR_iiY9tCm36Eg8_rBR5-172">
          <mxGeometry relative="1" as="geometry" />
        </mxCell>
        <mxCell id="cR_iiY9tCm36Eg8_rBR5-156" style="edgeStyle=orthogonalEdgeStyle;rounded=0;orthogonalLoop=1;jettySize=auto;html=1;exitX=0.5;exitY=1;exitDx=0;exitDy=0;entryX=0.5;entryY=0;entryDx=0;entryDy=0;endArrow=none;startFill=0;movable=1;resizable=1;rotatable=1;deletable=1;editable=1;locked=0;connectable=1;" edge="1" parent="cR_iiY9tCm36Eg8_rBR5-154" source="cR_iiY9tCm36Eg8_rBR5-158" target="cR_iiY9tCm36Eg8_rBR5-177">
          <mxGeometry relative="1" as="geometry" />
        </mxCell>
        <mxCell id="cR_iiY9tCm36Eg8_rBR5-157" style="edgeStyle=none;shape=connector;rounded=0;orthogonalLoop=1;jettySize=auto;html=1;exitX=1;exitY=0.5;exitDx=0;exitDy=0;entryX=0;entryY=0.5;entryDx=0;entryDy=0;strokeColor=default;align=center;verticalAlign=middle;fontFamily=Helvetica;fontSize=11;fontColor=default;labelBackgroundColor=default;startFill=0;endArrow=none;movable=1;resizable=1;rotatable=1;deletable=1;editable=1;locked=0;connectable=1;" edge="1" parent="cR_iiY9tCm36Eg8_rBR5-154" source="cR_iiY9tCm36Eg8_rBR5-158" target="cR_iiY9tCm36Eg8_rBR5-166">
          <mxGeometry relative="1" as="geometry" />
        </mxCell>
        <mxCell id="cR_iiY9tCm36Eg8_rBR5-158" value="" style="ellipse;whiteSpace=wrap;html=1;aspect=fixed;movable=1;resizable=1;rotatable=1;deletable=1;editable=1;locked=0;connectable=1;fillColor=#dae8fc;strokeColor=#6c8ebf;" vertex="1" parent="cR_iiY9tCm36Eg8_rBR5-154">
          <mxGeometry y="38.58519162353039" width="11.254692079092816" height="11.254692079092816" as="geometry" />
        </mxCell>
        <mxCell id="cR_iiY9tCm36Eg8_rBR5-159" style="edgeStyle=none;shape=connector;rounded=0;orthogonalLoop=1;jettySize=auto;html=1;exitX=0.5;exitY=0;exitDx=0;exitDy=0;entryX=0.5;entryY=1;entryDx=0;entryDy=0;strokeColor=default;align=center;verticalAlign=middle;fontFamily=Helvetica;fontSize=11;fontColor=default;labelBackgroundColor=default;startFill=0;endArrow=none;movable=1;resizable=1;rotatable=1;deletable=1;editable=1;locked=0;connectable=1;" edge="1" parent="cR_iiY9tCm36Eg8_rBR5-154" source="cR_iiY9tCm36Eg8_rBR5-160" target="cR_iiY9tCm36Eg8_rBR5-170">
          <mxGeometry relative="1" as="geometry" />
        </mxCell>
        <mxCell id="cR_iiY9tCm36Eg8_rBR5-160" value="" style="ellipse;whiteSpace=wrap;html=1;aspect=fixed;movable=1;resizable=1;rotatable=1;deletable=1;editable=1;locked=0;connectable=1;fillColor=#e1d5e7;strokeColor=#9673a6;" vertex="1" parent="cR_iiY9tCm36Eg8_rBR5-154">
          <mxGeometry x="114.72315498852333" y="62.474441206736685" width="11.254692079092816" height="11.254692079092816" as="geometry" />
        </mxCell>
        <mxCell id="cR_iiY9tCm36Eg8_rBR5-161" style="edgeStyle=none;shape=connector;rounded=0;orthogonalLoop=1;jettySize=auto;html=1;exitX=1;exitY=0.5;exitDx=0;exitDy=0;entryX=0;entryY=1;entryDx=0;entryDy=0;strokeColor=default;align=center;verticalAlign=middle;fontFamily=Helvetica;fontSize=11;fontColor=default;labelBackgroundColor=default;startFill=0;endArrow=none;movable=1;resizable=1;rotatable=1;deletable=1;editable=1;locked=0;connectable=1;" edge="1" parent="cR_iiY9tCm36Eg8_rBR5-154" source="cR_iiY9tCm36Eg8_rBR5-168" target="cR_iiY9tCm36Eg8_rBR5-160">
          <mxGeometry relative="1" as="geometry" />
        </mxCell>
        <mxCell id="cR_iiY9tCm36Eg8_rBR5-162" style="edgeStyle=none;shape=connector;rounded=0;orthogonalLoop=1;jettySize=auto;html=1;exitX=1;exitY=0.5;exitDx=0;exitDy=0;entryX=0;entryY=0;entryDx=0;entryDy=0;strokeColor=default;align=center;verticalAlign=middle;fontFamily=Helvetica;fontSize=11;fontColor=default;labelBackgroundColor=default;startFill=0;endArrow=none;movable=1;resizable=1;rotatable=1;deletable=1;editable=1;locked=0;connectable=1;" edge="1" parent="cR_iiY9tCm36Eg8_rBR5-154" source="cR_iiY9tCm36Eg8_rBR5-173" target="cR_iiY9tCm36Eg8_rBR5-160">
          <mxGeometry relative="1" as="geometry" />
        </mxCell>
        <mxCell id="cR_iiY9tCm36Eg8_rBR5-163" style="edgeStyle=none;shape=connector;rounded=0;orthogonalLoop=1;jettySize=auto;html=1;exitX=1;exitY=1;exitDx=0;exitDy=0;entryX=0;entryY=0;entryDx=0;entryDy=0;strokeColor=default;align=center;verticalAlign=middle;fontFamily=Helvetica;fontSize=11;fontColor=default;labelBackgroundColor=default;startFill=0;endArrow=none;movable=1;resizable=1;rotatable=1;deletable=1;editable=1;locked=0;connectable=1;" edge="1" parent="cR_iiY9tCm36Eg8_rBR5-154" source="cR_iiY9tCm36Eg8_rBR5-164" target="cR_iiY9tCm36Eg8_rBR5-170">
          <mxGeometry relative="1" as="geometry" />
        </mxCell>
        <mxCell id="cR_iiY9tCm36Eg8_rBR5-164" value="" style="ellipse;whiteSpace=wrap;html=1;aspect=fixed;movable=1;resizable=1;rotatable=1;deletable=1;editable=1;locked=0;connectable=1;fillColor=#dae8fc;strokeColor=#6c8ebf;" vertex="1" parent="cR_iiY9tCm36Eg8_rBR5-154">
          <mxGeometry x="77.56782700385418" width="10.350297179879998" height="10.350297179879998" as="geometry" />
        </mxCell>
        <mxCell id="cR_iiY9tCm36Eg8_rBR5-165" style="edgeStyle=none;shape=connector;rounded=0;orthogonalLoop=1;jettySize=auto;html=1;exitX=0;exitY=1;exitDx=0;exitDy=0;entryX=1;entryY=0;entryDx=0;entryDy=0;strokeColor=default;align=center;verticalAlign=middle;fontFamily=Helvetica;fontSize=11;fontColor=default;labelBackgroundColor=default;startFill=0;endArrow=none;movable=1;resizable=1;rotatable=1;deletable=1;editable=1;locked=0;connectable=1;" edge="1" parent="cR_iiY9tCm36Eg8_rBR5-154" source="cR_iiY9tCm36Eg8_rBR5-166" target="cR_iiY9tCm36Eg8_rBR5-175">
          <mxGeometry relative="1" as="geometry" />
        </mxCell>
        <mxCell id="cR_iiY9tCm36Eg8_rBR5-166" value="" style="ellipse;whiteSpace=wrap;html=1;aspect=fixed;movable=1;resizable=1;rotatable=1;deletable=1;editable=1;locked=0;connectable=1;fillColor=#e1d5e7;strokeColor=#9673a6;" vertex="1" parent="cR_iiY9tCm36Eg8_rBR5-154">
          <mxGeometry x="47.06785619165919" y="34.874295693433055" width="10.350297179879998" height="10.350297179879998" as="geometry" />
        </mxCell>
        <mxCell id="cR_iiY9tCm36Eg8_rBR5-167" style="edgeStyle=none;shape=connector;rounded=0;orthogonalLoop=1;jettySize=auto;html=1;exitX=1;exitY=0;exitDx=0;exitDy=0;entryX=0.5;entryY=1;entryDx=0;entryDy=0;strokeColor=default;align=center;verticalAlign=middle;fontFamily=Helvetica;fontSize=11;fontColor=default;labelBackgroundColor=default;startFill=0;endArrow=none;movable=1;resizable=1;rotatable=1;deletable=1;editable=1;locked=0;connectable=1;" edge="1" parent="cR_iiY9tCm36Eg8_rBR5-154" source="cR_iiY9tCm36Eg8_rBR5-168" target="cR_iiY9tCm36Eg8_rBR5-173">
          <mxGeometry relative="1" as="geometry" />
        </mxCell>
        <mxCell id="cR_iiY9tCm36Eg8_rBR5-168" value="" style="ellipse;whiteSpace=wrap;html=1;aspect=fixed;movable=1;resizable=1;rotatable=1;deletable=1;editable=1;locked=0;connectable=1;fillColor=#d5e8d4;strokeColor=#82b366;" vertex="1" parent="cR_iiY9tCm36Eg8_rBR5-154">
          <mxGeometry x="62.31784159775657" y="83.87268114270648" width="10.350297179879998" height="10.350297179879998" as="geometry" />
        </mxCell>
        <mxCell id="cR_iiY9tCm36Eg8_rBR5-169" style="edgeStyle=none;shape=connector;rounded=0;orthogonalLoop=1;jettySize=auto;html=1;exitX=0;exitY=1;exitDx=0;exitDy=0;entryX=1;entryY=0;entryDx=0;entryDy=0;strokeColor=default;align=center;verticalAlign=middle;fontFamily=Helvetica;fontSize=11;fontColor=default;labelBackgroundColor=default;startFill=0;endArrow=none;movable=1;resizable=1;rotatable=1;deletable=1;editable=1;locked=0;connectable=1;" edge="1" parent="cR_iiY9tCm36Eg8_rBR5-154" source="cR_iiY9tCm36Eg8_rBR5-170" target="cR_iiY9tCm36Eg8_rBR5-166">
          <mxGeometry relative="1" as="geometry" />
        </mxCell>
        <mxCell id="cR_iiY9tCm36Eg8_rBR5-170" value="" style="ellipse;whiteSpace=wrap;html=1;aspect=fixed;movable=1;resizable=1;rotatable=1;deletable=1;editable=1;locked=0;connectable=1;fillColor=#ffe6cc;strokeColor=#d79b00;" vertex="1" parent="cR_iiY9tCm36Eg8_rBR5-154">
          <mxGeometry x="101.10175509968371" y="20.750205937592625" width="10.350297179879998" height="10.350297179879998" as="geometry" />
        </mxCell>
        <mxCell id="cR_iiY9tCm36Eg8_rBR5-171" style="edgeStyle=orthogonalEdgeStyle;rounded=0;orthogonalLoop=1;jettySize=auto;html=1;exitX=1;exitY=0.5;exitDx=0;exitDy=0;entryX=0;entryY=0.5;entryDx=0;entryDy=0;startArrow=none;startFill=0;jumpStyle=none;curved=1;endArrow=none;movable=1;resizable=1;rotatable=1;deletable=1;editable=1;locked=0;connectable=1;" edge="1" parent="cR_iiY9tCm36Eg8_rBR5-154" source="cR_iiY9tCm36Eg8_rBR5-172" target="cR_iiY9tCm36Eg8_rBR5-164">
          <mxGeometry relative="1" as="geometry" />
        </mxCell>
        <mxCell id="cR_iiY9tCm36Eg8_rBR5-172" value="" style="ellipse;whiteSpace=wrap;html=1;aspect=fixed;movable=1;resizable=1;rotatable=1;deletable=1;editable=1;locked=0;connectable=1;fillColor=#ffe6cc;strokeColor=#d79b00;" vertex="1" parent="cR_iiY9tCm36Eg8_rBR5-154">
          <mxGeometry x="30.9392708033173" width="10.347931397667452" height="10.347931397667452" as="geometry" />
        </mxCell>
        <mxCell id="cR_iiY9tCm36Eg8_rBR5-173" value="" style="ellipse;whiteSpace=wrap;html=1;aspect=fixed;movable=1;resizable=1;rotatable=1;deletable=1;editable=1;locked=0;connectable=1;fillColor=#dae8fc;strokeColor=#6c8ebf;" vertex="1" parent="cR_iiY9tCm36Eg8_rBR5-154">
          <mxGeometry x="77.56782700385418" y="46.90592770766739" width="10.350297179879998" height="10.350297179879998" as="geometry" />
        </mxCell>
        <mxCell id="cR_iiY9tCm36Eg8_rBR5-174" style="edgeStyle=none;shape=connector;rounded=0;orthogonalLoop=1;jettySize=auto;html=1;exitX=1;exitY=0.5;exitDx=0;exitDy=0;entryX=0;entryY=1;entryDx=0;entryDy=0;strokeColor=default;align=center;verticalAlign=middle;fontFamily=Helvetica;fontSize=11;fontColor=default;labelBackgroundColor=default;startFill=0;endArrow=none;movable=1;resizable=1;rotatable=1;deletable=1;editable=1;locked=0;connectable=1;" edge="1" parent="cR_iiY9tCm36Eg8_rBR5-154" source="cR_iiY9tCm36Eg8_rBR5-175" target="cR_iiY9tCm36Eg8_rBR5-173">
          <mxGeometry relative="1" as="geometry" />
        </mxCell>
        <mxCell id="cR_iiY9tCm36Eg8_rBR5-175" value="" style="ellipse;whiteSpace=wrap;html=1;aspect=fixed;movable=1;resizable=1;rotatable=1;deletable=1;editable=1;locked=0;connectable=1;fillColor=#dae8fc;strokeColor=#6c8ebf;" vertex="1" parent="cR_iiY9tCm36Eg8_rBR5-154">
          <mxGeometry x="30.9392708033173" y="83.87268114270648" width="10.350297179879998" height="10.350297179879998" as="geometry" />
        </mxCell>
        <mxCell id="cR_iiY9tCm36Eg8_rBR5-176" style="rounded=0;orthogonalLoop=1;jettySize=auto;html=1;exitX=1;exitY=1;exitDx=0;exitDy=0;entryX=0;entryY=0.5;entryDx=0;entryDy=0;endArrow=none;startFill=0;movable=1;resizable=1;rotatable=1;deletable=1;editable=1;locked=0;connectable=1;" edge="1" parent="cR_iiY9tCm36Eg8_rBR5-154" source="cR_iiY9tCm36Eg8_rBR5-177" target="cR_iiY9tCm36Eg8_rBR5-175">
          <mxGeometry relative="1" as="geometry" />
        </mxCell>
        <mxCell id="cR_iiY9tCm36Eg8_rBR5-177" value="" style="ellipse;whiteSpace=wrap;html=1;aspect=fixed;movable=1;resizable=1;rotatable=1;deletable=1;editable=1;locked=0;connectable=1;fillColor=#d5e8d4;strokeColor=#82b366;" vertex="1" parent="cR_iiY9tCm36Eg8_rBR5-154">
          <mxGeometry y="69.74859138686611" width="10.350297179879998" height="10.350297179879998" as="geometry" />
        </mxCell>
        <mxCell id="cR_iiY9tCm36Eg8_rBR5-178" value="" style="group" vertex="1" connectable="0" parent="1">
          <mxGeometry x="-650" y="414" width="125.97784706761615" height="94.22297832258647" as="geometry" />
        </mxCell>
        <mxCell id="cR_iiY9tCm36Eg8_rBR5-179" style="rounded=0;orthogonalLoop=1;jettySize=auto;html=1;exitX=1;exitY=0;exitDx=0;exitDy=0;entryX=0;entryY=1;entryDx=0;entryDy=0;endArrow=none;startFill=0;movable=1;resizable=1;rotatable=1;deletable=1;editable=1;locked=0;connectable=1;" edge="1" parent="cR_iiY9tCm36Eg8_rBR5-178" source="cR_iiY9tCm36Eg8_rBR5-182" target="cR_iiY9tCm36Eg8_rBR5-196">
          <mxGeometry relative="1" as="geometry" />
        </mxCell>
        <mxCell id="cR_iiY9tCm36Eg8_rBR5-180" style="edgeStyle=orthogonalEdgeStyle;rounded=0;orthogonalLoop=1;jettySize=auto;html=1;exitX=0.5;exitY=1;exitDx=0;exitDy=0;entryX=0.5;entryY=0;entryDx=0;entryDy=0;endArrow=none;startFill=0;movable=1;resizable=1;rotatable=1;deletable=1;editable=1;locked=0;connectable=1;" edge="1" parent="cR_iiY9tCm36Eg8_rBR5-178" source="cR_iiY9tCm36Eg8_rBR5-182" target="cR_iiY9tCm36Eg8_rBR5-201">
          <mxGeometry relative="1" as="geometry" />
        </mxCell>
        <mxCell id="cR_iiY9tCm36Eg8_rBR5-181" style="edgeStyle=none;shape=connector;rounded=0;orthogonalLoop=1;jettySize=auto;html=1;exitX=1;exitY=0.5;exitDx=0;exitDy=0;entryX=0;entryY=0.5;entryDx=0;entryDy=0;strokeColor=default;align=center;verticalAlign=middle;fontFamily=Helvetica;fontSize=11;fontColor=default;labelBackgroundColor=default;startFill=0;endArrow=none;movable=1;resizable=1;rotatable=1;deletable=1;editable=1;locked=0;connectable=1;" edge="1" parent="cR_iiY9tCm36Eg8_rBR5-178" source="cR_iiY9tCm36Eg8_rBR5-182" target="cR_iiY9tCm36Eg8_rBR5-190">
          <mxGeometry relative="1" as="geometry" />
        </mxCell>
        <mxCell id="cR_iiY9tCm36Eg8_rBR5-182" value="" style="ellipse;whiteSpace=wrap;html=1;aspect=fixed;movable=1;resizable=1;rotatable=1;deletable=1;editable=1;locked=0;connectable=1;fillColor=#dae8fc;strokeColor=#6c8ebf;" vertex="1" parent="cR_iiY9tCm36Eg8_rBR5-178">
          <mxGeometry y="38.58519162353039" width="11.254692079092816" height="11.254692079092816" as="geometry" />
        </mxCell>
        <mxCell id="cR_iiY9tCm36Eg8_rBR5-183" style="edgeStyle=none;shape=connector;rounded=0;orthogonalLoop=1;jettySize=auto;html=1;exitX=0.5;exitY=0;exitDx=0;exitDy=0;entryX=0.5;entryY=1;entryDx=0;entryDy=0;strokeColor=default;align=center;verticalAlign=middle;fontFamily=Helvetica;fontSize=11;fontColor=default;labelBackgroundColor=default;startFill=0;endArrow=none;movable=1;resizable=1;rotatable=1;deletable=1;editable=1;locked=0;connectable=1;" edge="1" parent="cR_iiY9tCm36Eg8_rBR5-178" source="cR_iiY9tCm36Eg8_rBR5-184" target="cR_iiY9tCm36Eg8_rBR5-194">
          <mxGeometry relative="1" as="geometry" />
        </mxCell>
        <mxCell id="cR_iiY9tCm36Eg8_rBR5-184" value="" style="ellipse;whiteSpace=wrap;html=1;aspect=fixed;movable=1;resizable=1;rotatable=1;deletable=1;editable=1;locked=0;connectable=1;fillColor=#e1d5e7;strokeColor=#9673a6;" vertex="1" parent="cR_iiY9tCm36Eg8_rBR5-178">
          <mxGeometry x="114.72315498852333" y="62.474441206736685" width="11.254692079092816" height="11.254692079092816" as="geometry" />
        </mxCell>
        <mxCell id="cR_iiY9tCm36Eg8_rBR5-185" style="edgeStyle=none;shape=connector;rounded=0;orthogonalLoop=1;jettySize=auto;html=1;exitX=1;exitY=0.5;exitDx=0;exitDy=0;entryX=0;entryY=1;entryDx=0;entryDy=0;strokeColor=default;align=center;verticalAlign=middle;fontFamily=Helvetica;fontSize=11;fontColor=default;labelBackgroundColor=default;startFill=0;endArrow=none;movable=1;resizable=1;rotatable=1;deletable=1;editable=1;locked=0;connectable=1;" edge="1" parent="cR_iiY9tCm36Eg8_rBR5-178" source="cR_iiY9tCm36Eg8_rBR5-192" target="cR_iiY9tCm36Eg8_rBR5-184">
          <mxGeometry relative="1" as="geometry" />
        </mxCell>
        <mxCell id="cR_iiY9tCm36Eg8_rBR5-186" style="edgeStyle=none;shape=connector;rounded=0;orthogonalLoop=1;jettySize=auto;html=1;exitX=1;exitY=0.5;exitDx=0;exitDy=0;entryX=0;entryY=0;entryDx=0;entryDy=0;strokeColor=default;align=center;verticalAlign=middle;fontFamily=Helvetica;fontSize=11;fontColor=default;labelBackgroundColor=default;startFill=0;endArrow=none;movable=1;resizable=1;rotatable=1;deletable=1;editable=1;locked=0;connectable=1;" edge="1" parent="cR_iiY9tCm36Eg8_rBR5-178" source="cR_iiY9tCm36Eg8_rBR5-197" target="cR_iiY9tCm36Eg8_rBR5-184">
          <mxGeometry relative="1" as="geometry" />
        </mxCell>
        <mxCell id="cR_iiY9tCm36Eg8_rBR5-187" style="edgeStyle=none;shape=connector;rounded=0;orthogonalLoop=1;jettySize=auto;html=1;exitX=1;exitY=1;exitDx=0;exitDy=0;entryX=0;entryY=0;entryDx=0;entryDy=0;strokeColor=default;align=center;verticalAlign=middle;fontFamily=Helvetica;fontSize=11;fontColor=default;labelBackgroundColor=default;startFill=0;endArrow=none;movable=1;resizable=1;rotatable=1;deletable=1;editable=1;locked=0;connectable=1;" edge="1" parent="cR_iiY9tCm36Eg8_rBR5-178" source="cR_iiY9tCm36Eg8_rBR5-188" target="cR_iiY9tCm36Eg8_rBR5-194">
          <mxGeometry relative="1" as="geometry" />
        </mxCell>
        <mxCell id="cR_iiY9tCm36Eg8_rBR5-188" value="" style="ellipse;whiteSpace=wrap;html=1;aspect=fixed;movable=1;resizable=1;rotatable=1;deletable=1;editable=1;locked=0;connectable=1;fillColor=#dae8fc;strokeColor=#6c8ebf;" vertex="1" parent="cR_iiY9tCm36Eg8_rBR5-178">
          <mxGeometry x="77.56782700385418" width="10.350297179879998" height="10.350297179879998" as="geometry" />
        </mxCell>
        <mxCell id="cR_iiY9tCm36Eg8_rBR5-189" style="edgeStyle=none;shape=connector;rounded=0;orthogonalLoop=1;jettySize=auto;html=1;exitX=0;exitY=1;exitDx=0;exitDy=0;entryX=1;entryY=0;entryDx=0;entryDy=0;strokeColor=default;align=center;verticalAlign=middle;fontFamily=Helvetica;fontSize=11;fontColor=default;labelBackgroundColor=default;startFill=0;endArrow=none;movable=1;resizable=1;rotatable=1;deletable=1;editable=1;locked=0;connectable=1;" edge="1" parent="cR_iiY9tCm36Eg8_rBR5-178" source="cR_iiY9tCm36Eg8_rBR5-190" target="cR_iiY9tCm36Eg8_rBR5-199">
          <mxGeometry relative="1" as="geometry" />
        </mxCell>
        <mxCell id="cR_iiY9tCm36Eg8_rBR5-190" value="" style="ellipse;whiteSpace=wrap;html=1;aspect=fixed;movable=1;resizable=1;rotatable=1;deletable=1;editable=1;locked=0;connectable=1;fillColor=#e1d5e7;strokeColor=#9673a6;" vertex="1" parent="cR_iiY9tCm36Eg8_rBR5-178">
          <mxGeometry x="47.06785619165919" y="34.874295693433055" width="10.350297179879998" height="10.350297179879998" as="geometry" />
        </mxCell>
        <mxCell id="cR_iiY9tCm36Eg8_rBR5-191" style="edgeStyle=none;shape=connector;rounded=0;orthogonalLoop=1;jettySize=auto;html=1;exitX=1;exitY=0;exitDx=0;exitDy=0;entryX=0.5;entryY=1;entryDx=0;entryDy=0;strokeColor=default;align=center;verticalAlign=middle;fontFamily=Helvetica;fontSize=11;fontColor=default;labelBackgroundColor=default;startFill=0;endArrow=none;movable=1;resizable=1;rotatable=1;deletable=1;editable=1;locked=0;connectable=1;" edge="1" parent="cR_iiY9tCm36Eg8_rBR5-178" source="cR_iiY9tCm36Eg8_rBR5-192" target="cR_iiY9tCm36Eg8_rBR5-197">
          <mxGeometry relative="1" as="geometry" />
        </mxCell>
        <mxCell id="cR_iiY9tCm36Eg8_rBR5-192" value="" style="ellipse;whiteSpace=wrap;html=1;aspect=fixed;movable=1;resizable=1;rotatable=1;deletable=1;editable=1;locked=0;connectable=1;fillColor=#d5e8d4;strokeColor=#82b366;" vertex="1" parent="cR_iiY9tCm36Eg8_rBR5-178">
          <mxGeometry x="62.31784159775657" y="83.87268114270648" width="10.350297179879998" height="10.350297179879998" as="geometry" />
        </mxCell>
        <mxCell id="cR_iiY9tCm36Eg8_rBR5-193" style="edgeStyle=none;shape=connector;rounded=0;orthogonalLoop=1;jettySize=auto;html=1;exitX=0;exitY=1;exitDx=0;exitDy=0;entryX=1;entryY=0;entryDx=0;entryDy=0;strokeColor=default;align=center;verticalAlign=middle;fontFamily=Helvetica;fontSize=11;fontColor=default;labelBackgroundColor=default;startFill=0;endArrow=none;movable=1;resizable=1;rotatable=1;deletable=1;editable=1;locked=0;connectable=1;" edge="1" parent="cR_iiY9tCm36Eg8_rBR5-178" source="cR_iiY9tCm36Eg8_rBR5-194" target="cR_iiY9tCm36Eg8_rBR5-190">
          <mxGeometry relative="1" as="geometry" />
        </mxCell>
        <mxCell id="cR_iiY9tCm36Eg8_rBR5-194" value="" style="ellipse;whiteSpace=wrap;html=1;aspect=fixed;movable=1;resizable=1;rotatable=1;deletable=1;editable=1;locked=0;connectable=1;fillColor=#ffe6cc;strokeColor=#d79b00;" vertex="1" parent="cR_iiY9tCm36Eg8_rBR5-178">
          <mxGeometry x="101.10175509968371" y="20.750205937592625" width="10.350297179879998" height="10.350297179879998" as="geometry" />
        </mxCell>
        <mxCell id="cR_iiY9tCm36Eg8_rBR5-195" style="edgeStyle=orthogonalEdgeStyle;rounded=0;orthogonalLoop=1;jettySize=auto;html=1;exitX=1;exitY=0.5;exitDx=0;exitDy=0;entryX=0;entryY=0.5;entryDx=0;entryDy=0;startArrow=none;startFill=0;jumpStyle=none;curved=1;endArrow=none;movable=1;resizable=1;rotatable=1;deletable=1;editable=1;locked=0;connectable=1;" edge="1" parent="cR_iiY9tCm36Eg8_rBR5-178" source="cR_iiY9tCm36Eg8_rBR5-196" target="cR_iiY9tCm36Eg8_rBR5-188">
          <mxGeometry relative="1" as="geometry" />
        </mxCell>
        <mxCell id="cR_iiY9tCm36Eg8_rBR5-196" value="" style="ellipse;whiteSpace=wrap;html=1;aspect=fixed;movable=1;resizable=1;rotatable=1;deletable=1;editable=1;locked=0;connectable=1;fillColor=#ffe6cc;strokeColor=#d79b00;" vertex="1" parent="cR_iiY9tCm36Eg8_rBR5-178">
          <mxGeometry x="30.9392708033173" width="10.347931397667452" height="10.347931397667452" as="geometry" />
        </mxCell>
        <mxCell id="cR_iiY9tCm36Eg8_rBR5-197" value="" style="ellipse;whiteSpace=wrap;html=1;aspect=fixed;movable=1;resizable=1;rotatable=1;deletable=1;editable=1;locked=0;connectable=1;fillColor=#dae8fc;strokeColor=#6c8ebf;" vertex="1" parent="cR_iiY9tCm36Eg8_rBR5-178">
          <mxGeometry x="77.56782700385418" y="46.90592770766739" width="10.350297179879998" height="10.350297179879998" as="geometry" />
        </mxCell>
        <mxCell id="cR_iiY9tCm36Eg8_rBR5-198" style="edgeStyle=none;shape=connector;rounded=0;orthogonalLoop=1;jettySize=auto;html=1;exitX=1;exitY=0.5;exitDx=0;exitDy=0;entryX=0;entryY=1;entryDx=0;entryDy=0;strokeColor=default;align=center;verticalAlign=middle;fontFamily=Helvetica;fontSize=11;fontColor=default;labelBackgroundColor=default;startFill=0;endArrow=none;movable=1;resizable=1;rotatable=1;deletable=1;editable=1;locked=0;connectable=1;" edge="1" parent="cR_iiY9tCm36Eg8_rBR5-178" source="cR_iiY9tCm36Eg8_rBR5-199" target="cR_iiY9tCm36Eg8_rBR5-197">
          <mxGeometry relative="1" as="geometry" />
        </mxCell>
        <mxCell id="cR_iiY9tCm36Eg8_rBR5-199" value="" style="ellipse;whiteSpace=wrap;html=1;aspect=fixed;movable=1;resizable=1;rotatable=1;deletable=1;editable=1;locked=0;connectable=1;fillColor=#dae8fc;strokeColor=#6c8ebf;" vertex="1" parent="cR_iiY9tCm36Eg8_rBR5-178">
          <mxGeometry x="30.9392708033173" y="83.87268114270648" width="10.350297179879998" height="10.350297179879998" as="geometry" />
        </mxCell>
        <mxCell id="cR_iiY9tCm36Eg8_rBR5-200" style="rounded=0;orthogonalLoop=1;jettySize=auto;html=1;exitX=1;exitY=1;exitDx=0;exitDy=0;entryX=0;entryY=0.5;entryDx=0;entryDy=0;endArrow=none;startFill=0;movable=1;resizable=1;rotatable=1;deletable=1;editable=1;locked=0;connectable=1;" edge="1" parent="cR_iiY9tCm36Eg8_rBR5-178" source="cR_iiY9tCm36Eg8_rBR5-201" target="cR_iiY9tCm36Eg8_rBR5-199">
          <mxGeometry relative="1" as="geometry" />
        </mxCell>
        <mxCell id="cR_iiY9tCm36Eg8_rBR5-201" value="" style="ellipse;whiteSpace=wrap;html=1;aspect=fixed;movable=1;resizable=1;rotatable=1;deletable=1;editable=1;locked=0;connectable=1;fillColor=#d5e8d4;strokeColor=#82b366;" vertex="1" parent="cR_iiY9tCm36Eg8_rBR5-178">
          <mxGeometry y="69.74859138686611" width="10.350297179879998" height="10.350297179879998" as="geometry" />
        </mxCell>
        <mxCell id="cR_iiY9tCm36Eg8_rBR5-216" value="" style="shape=singleArrow;direction=west;whiteSpace=wrap;html=1;arrowWidth=0.404761904761902;arrowSize=0.04773082942097009;strokeColor=#707070;fillColor=#969696;" vertex="1" parent="1">
          <mxGeometry x="-674.98" y="280" width="213" height="14" as="geometry" />
        </mxCell>
        <mxCell id="cR_iiY9tCm36Eg8_rBR5-220" value="" style="shape=singleArrow;direction=west;whiteSpace=wrap;html=1;arrowWidth=0.404761904761902;arrowSize=0.04773082942097009;rotation=-150;fillColor=#969696;" vertex="1" parent="1">
          <mxGeometry x="-751" y="404" width="110.02" height="14" as="geometry" />
        </mxCell>
        <mxCell id="cR_iiY9tCm36Eg8_rBR5-221" value="" style="shape=singleArrow;direction=west;whiteSpace=wrap;html=1;arrowWidth=0.404761904761902;arrowSize=0.04773082942097009;rotation=-225;fillColor=#969696;" vertex="1" parent="1">
          <mxGeometry x="-528" y="398" width="110.02" height="14" as="geometry" />
        </mxCell>
        <mxCell id="cR_iiY9tCm36Eg8_rBR5-222" value="$$\mathbf{x}_1$$" style="text;whiteSpace=wrap;fontFamily=Helvetica;fontSize=11;fontColor=default;resizable=1;rotation=0;" vertex="1" parent="1">
          <mxGeometry x="-994" y="428" width="49" height="30" as="geometry" />
        </mxCell>
        <mxCell id="cR_iiY9tCm36Eg8_rBR5-226" value="$$\mathbf{x}_7$$" style="text;whiteSpace=wrap;fontFamily=Helvetica;fontSize=11;fontColor=default;resizable=1;rotation=0;" vertex="1" parent="1">
          <mxGeometry x="-977" y="250" width="49" height="30" as="geometry" />
        </mxCell>
        <mxCell id="cR_iiY9tCm36Eg8_rBR5-227" value="$$\mathbf{x}_6$$" style="text;whiteSpace=wrap;fontFamily=Helvetica;fontSize=11;fontColor=default;resizable=1;rotation=0;" vertex="1" parent="1">
          <mxGeometry x="-1058" y="254" width="49" height="30" as="geometry" />
        </mxCell>
        <mxCell id="cR_iiY9tCm36Eg8_rBR5-228" value="$$\mathbf{x}_5$$" style="text;whiteSpace=wrap;fontFamily=Helvetica;fontSize=11;fontColor=default;resizable=1;rotation=0;" vertex="1" parent="1">
          <mxGeometry x="-1113" y="335" width="49" height="30" as="geometry" />
        </mxCell>
        <mxCell id="cR_iiY9tCm36Eg8_rBR5-234" value="\(\bar{\mathbf{H}}^{(k)}  \leftarrow \bar{\mathbf{H}}^{(k)} \boldsymbol{\Theta}^{(k)} \)" style="text;whiteSpace=wrap;" vertex="1" parent="1">
          <mxGeometry x="-640.98" y="517" width="179" height="49" as="geometry" />
        </mxCell>
        <mxCell id="cR_iiY9tCm36Eg8_rBR5-236" value="&lt;span style=&quot;white-space: normal;&quot;&gt;&lt;span style=&quot;white-space:pre&quot;&gt;&#x9;&lt;/span&gt;\(\bar{\mathbf{H}}^{(k)}&amp;nbsp; \leftarrow \mathbf{S} \mathbf{H}^{(k-1)}\)&lt;/span&gt;" style="text;strokeColor=none;align=center;fillColor=none;html=1;verticalAlign=middle;whiteSpace=wrap;rounded=0;" vertex="1" parent="1">
          <mxGeometry x="-913" y="356" width="214" height="48" as="geometry" />
        </mxCell>
        <mxCell id="cR_iiY9tCm36Eg8_rBR5-237" value="\(\mathbf{H}^{(k)}  \leftarrow \operatorname{ReLU}\left( \bar{\mathbf{H}}^{(k)}  \right)\)" style="text;whiteSpace=wrap;" vertex="1" parent="1">
          <mxGeometry x="-418" y="369" width="179" height="49" as="geometry" />
        </mxCell>
        <mxCell id="cR_iiY9tCm36Eg8_rBR5-240" value="线性变换" style="text;whiteSpace=wrap;fontFamily=黑体;fontSize=12;fontColor=default;resizable=1;rotation=0;fontStyle=1" vertex="1" parent="1">
          <mxGeometry x="-707" y="503" width="83" height="28" as="geometry" />
        </mxCell>
        <mxCell id="cR_iiY9tCm36Eg8_rBR5-242" value="非线性激活" style="text;whiteSpace=wrap;fontFamily=黑体;fontSize=12;fontColor=default;resizable=1;rotation=0;fontStyle=1" vertex="1" parent="1">
          <mxGeometry x="-391" y="400" width="83" height="28" as="geometry" />
        </mxCell>
        <mxCell id="cR_iiY9tCm36Eg8_rBR5-243" value="特征传播" style="text;whiteSpace=wrap;fontFamily=黑体;fontSize=12;fontColor=default;resizable=1;rotation=0;fontStyle=1" vertex="1" parent="1">
          <mxGeometry x="-824" y="393" width="83" height="28" as="geometry" />
        </mxCell>
        <mxCell id="cR_iiY9tCm36Eg8_rBR5-244" value="" style="shape=singleArrow;whiteSpace=wrap;html=1;" vertex="1" parent="1">
          <mxGeometry x="-904" y="347" width="58" height="33" as="geometry" />
        </mxCell>
        <mxCell id="cR_iiY9tCm36Eg8_rBR5-245" value="" style="shape=singleArrow;whiteSpace=wrap;html=1;" vertex="1" parent="1">
          <mxGeometry x="-260" y="379" width="58" height="33" as="geometry" />
        </mxCell>
        <mxCell id="cR_iiY9tCm36Eg8_rBR5-246" value="\(\mathbf{H}^{(0)} = \mathbf{X}\)" style="text;whiteSpace=wrap;" vertex="1" parent="1">
          <mxGeometry x="-1063.9976470588235" y="469.00176470588247" width="183" height="36" as="geometry" />
        </mxCell>
      </root>
    </mxGraphModel>
  </diagram>
</mxfile>
